name ../IE_Laxity/ie_15.mot
datacolumns  10
datarows 40
range   7.00000000 7.39000000
cursor 1.0 1.0 0.0
keys m_key
wrap
enforce_loops no
enforce_constraints no
calc_derivatives -1.000000
event_color 0.000000 0.000000 0.000000
endheader
            time femur_r_force_vx femur_r_force_vy femur_r_force_vz femur_r_force_px femur_r_force_py femur_r_force_pz femur_r_torque_x femur_r_torque_y femur_r_torque_z 
      7.00000000       0.00000000       0.00000000       0.00000000      -0.02255621      -0.51082145       0.00000000      -1.16283030      -4.33974175       0.00000000 
      7.01000000       0.00000000       0.00000000       0.00000000      -0.02255621      -0.51082145       0.00000000      -1.16477211      -4.34698871       0.00000000 
      7.02000000       0.00000000       0.00000000       0.00000000      -0.02255621      -0.51082145       0.00000000      -1.16670106      -4.35418762       0.00000000 
      7.03000000       0.00000000       0.00000000       0.00000000      -0.02255621      -0.51082145       0.00000000      -1.16861708      -4.36133831       0.00000000 
      7.04000000       0.00000000       0.00000000       0.00000000      -0.02255621      -0.51082145       0.00000000      -1.17052013      -4.36844059       0.00000000 
      7.05000000       0.00000000       0.00000000       0.00000000      -0.02255621      -0.51082145       0.00000000      -1.17241016      -4.37549429       0.00000000 
      7.06000000       0.00000000       0.00000000       0.00000000      -0.02255621      -0.51082145       0.00000000      -1.17428713      -4.38249923       0.00000000 
      7.07000000       0.00000000       0.00000000       0.00000000      -0.02255621      -0.51082145       0.00000000      -1.17615099      -4.38945525       0.00000000 
      7.08000000       0.00000000       0.00000000       0.00000000      -0.02255621      -0.51082145       0.00000000      -1.17800169      -4.39636216       0.00000000 
      7.09000000       0.00000000       0.00000000       0.00000000      -0.02255621      -0.51082145       0.00000000      -1.17983919      -4.40321980       0.00000000 
      7.10000000       0.00000000       0.00000000       0.00000000      -0.02255621      -0.51082145       0.00000000      -1.18166344      -4.41002799       0.00000000 
      7.11000000       0.00000000       0.00000000       0.00000000      -0.02255621      -0.51082145       0.00000000      -1.18347439      -4.41678657       0.00000000 
      7.12000000       0.00000000       0.00000000       0.00000000      -0.02255621      -0.51082145       0.00000000      -1.18527201      -4.42349537       0.00000000 
      7.13000000       0.00000000       0.00000000       0.00000000      -0.02255621      -0.51082145       0.00000000      -1.18705624      -4.43015421       0.00000000 
      7.14000000       0.00000000       0.00000000       0.00000000      -0.02255621      -0.51082145       0.00000000      -1.18882705      -4.43676295       0.00000000 
      7.15000000       0.00000000       0.00000000       0.00000000      -0.02255621      -0.51082145       0.00000000      -1.19058438      -4.44332140       0.00000000 
      7.16000000       0.00000000       0.00000000       0.00000000      -0.02255621      -0.51082145       0.00000000      -1.19232820      -4.44982941       0.00000000 
      7.17000000       0.00000000       0.00000000       0.00000000      -0.02255621      -0.51082145       0.00000000      -1.19405845      -4.45628682       0.00000000 
      7.18000000       0.00000000       0.00000000       0.00000000      -0.02255621      -0.51082145       0.00000000      -1.19577511      -4.46269346       0.00000000 
      7.19000000       0.00000000       0.00000000       0.00000000      -0.02255621      -0.51082145       0.00000000      -1.19747812      -4.46904918       0.00000000 
      7.20000000       0.00000000       0.00000000       0.00000000      -0.02255621      -0.51082145       0.00000000      -1.19916744      -4.47535382       0.00000000 
      7.21000000       0.00000000       0.00000000       0.00000000      -0.02255621      -0.51082145       0.00000000      -1.20084303      -4.48160721       0.00000000 
      7.22000000       0.00000000       0.00000000       0.00000000      -0.02255621      -0.51082145       0.00000000      -1.20250486      -4.48780922       0.00000000 
      7.23000000       0.00000000       0.00000000       0.00000000      -0.02255621      -0.51082145       0.00000000      -1.20415286      -4.49395967       0.00000000 
      7.24000000       0.00000000       0.00000000       0.00000000      -0.02255621      -0.51082145       0.00000000      -1.20578702      -4.50005842       0.00000000 
      7.25000000       0.00000000       0.00000000       0.00000000      -0.02255621      -0.51082145       0.00000000      -1.20740728      -4.50610533       0.00000000 
      7.26000000       0.00000000       0.00000000       0.00000000      -0.02255621      -0.51082145       0.00000000      -1.20901361      -4.51210022       0.00000000 
      7.27000000       0.00000000       0.00000000       0.00000000      -0.02255621      -0.51082145       0.00000000      -1.21060596      -4.51804297       0.00000000 
      7.28000000       0.00000000       0.00000000       0.00000000      -0.02255621      -0.51082145       0.00000000      -1.21218430      -4.52393341       0.00000000 
      7.29000000       0.00000000       0.00000000       0.00000000      -0.02255621      -0.51082145       0.00000000      -1.21374859      -4.52977141       0.00000000 
      7.30000000       0.00000000       0.00000000       0.00000000      -0.02255621      -0.51082145       0.00000000      -1.21529879      -4.53555681       0.00000000 
      7.31000000       0.00000000       0.00000000       0.00000000      -0.02255621      -0.51082145       0.00000000      -1.21683485      -4.54128948       0.00000000 
      7.32000000       0.00000000       0.00000000       0.00000000      -0.02255621      -0.51082145       0.00000000      -1.21835674      -4.54696927       0.00000000 
      7.33000000       0.00000000       0.00000000       0.00000000      -0.02255621      -0.51082145       0.00000000      -1.21986443      -4.55259605       0.00000000 
      7.34000000       0.00000000       0.00000000       0.00000000      -0.02255621      -0.51082145       0.00000000      -1.22135788      -4.55816966       0.00000000 
      7.35000000       0.00000000       0.00000000       0.00000000      -0.02255621      -0.51082145       0.00000000      -1.22283704      -4.56368997       0.00000000 
      7.36000000       0.00000000       0.00000000       0.00000000      -0.02255621      -0.51082145       0.00000000      -1.22430189      -4.56915685       0.00000000 
      7.37000000       0.00000000       0.00000000       0.00000000      -0.02255621      -0.51082145       0.00000000      -1.22575238      -4.57457016       0.00000000 
      7.38000000       0.00000000       0.00000000       0.00000000      -0.02255621      -0.51082145       0.00000000      -1.22718848      -4.57992976       0.00000000 
      7.39000000       0.00000000       0.00000000       0.00000000      -0.02255621      -0.51082145       0.00000000      -1.22861015      -4.58523552       0.00000000 
